<svg width="48" height="48" viewBox="0 0 48 48" fill="none" xmlns="http://www.w3.org/2000/svg">
<rect width="48" height="48" rx="16" fill="#006981"/>
<path fill-rule="evenodd" clip-rule="evenodd" d="M30.48 14.317L15.1518 29.6903L15.1147 32.8972L18.2606 32.8556L33.6396 17.4766L30.48 14.317ZM31.5402 12.5487C30.9538 11.9623 30.0028 11.963 29.4173 12.5503L13.592 28.4221C13.3159 28.699 13.1588 29.0728 13.1543 29.4638L13.1088 33.3865C13.0991 34.2294 13.7856 34.9149 14.6286 34.9038L18.4902 34.8527C18.8811 34.8476 19.2546 34.69 19.5311 34.4135L35.4074 18.5372C35.9931 17.9514 35.9931 17.0017 35.4074 16.4159L31.5402 12.5487Z" fill="white"/>
<path fill-rule="evenodd" clip-rule="evenodd" d="M27.581 15.9574C27.9715 15.5668 28.6047 15.5668 28.9952 15.9574L32.0817 19.0439C32.4722 19.4344 32.4722 20.0676 32.0817 20.4581C31.6912 20.8486 31.058 20.8486 30.6675 20.4581L27.581 17.3716C27.1905 16.981 27.1905 16.3479 27.581 15.9574Z" fill="white"/>
</svg>
